<svg xmlns="http://www.w3.org/2000/svg" viewBox="0 0 180 80" fill="none">
  <defs><linearGradient id="oak" x1="5" y1="2" x2="175" y2="78" gradientUnits="userSpaceOnUse"><stop stop-color="#d1b48a"/><stop offset=".55" stop-color="#b58e60"/><stop offset="1" stop-color="#98724e"/></linearGradient></defs>
  <rect x="5" y="5" width="170" height="70" rx="8" fill="#624d38" opacity=".18"/>
  <rect x="4" y="3" width="172" height="72" rx="8" fill="url(#oak)" stroke="#775a3e" stroke-width="2"/>
  <rect x="10" y="9" width="77" height="60" rx="4" fill="#c8a77a" stroke="#8e6a48" stroke-width="1.5"/>
  <rect x="93" y="9" width="77" height="60" rx="4" fill="#c0a073" stroke="#8e6a48" stroke-width="1.5"/>
  <rect x="16" y="14" width="65" height="50" rx="2" stroke="#e5cb9f" stroke-opacity=".72" stroke-width="1.5"/>
  <rect x="99" y="14" width="65" height="50" rx="2" stroke="#e5cb9f" stroke-opacity=".72" stroke-width="1.5"/>
  <path d="M22 20c15 8 36 8 53 0M22 56c15-7 37-7 53 0m30-36c16 8 36 8 53 0m-53 36c17-7 37-7 53 0" stroke="#8c6948" stroke-opacity=".26" stroke-width="1.3"/>
  <path d="M84 18v42" stroke="#77593c" stroke-width="1.5"/>
  <rect x="76" y="34" width="4" height="12" rx="2" fill="#72583d"/><rect x="100" y="34" width="4" height="12" rx="2" fill="#72583d"/>
</svg>
